<?xml version="1.0" encoding="utf-8"?>
<!-- Generator: Adobe Illustrator 21.1.0, SVG Export Plug-In . SVG Version: 6.00 Build 0)  -->
<svg version="1.1" xmlns="http://www.w3.org/2000/svg" xmlns:xlink="http://www.w3.org/1999/xlink" x="0px" y="0px"
	 viewBox="0 0 2546 1334" style="enable-background:new 0 0 2546 1334;" xml:space="preserve" id="filter">
<g id="filter_system_overlay">
	<path class="fl0 nochange filtering" d="M1154.3,461.6c-4.8-23.5-7.3-47.7-7.3-72.6c0-112.7,51.6-213.3,132.4-279.6c-64.1-57.7-148.9-92.9-241.9-92.9
		C837.8,16.5,676,178.3,676,378c0,156.2,99.1,289.3,237.8,339.8C944.3,596.4,1036,499.4,1154.3,461.6z"/>
	<path class="fl1 filtering zeromigration" d="M1870,389c0-199.7-161.8-361.5-361.5-361.5c-87,0-166.7,30.7-229.1,81.9c73.4,66.2,119.6,162,119.6,268.6
		c0,30.4-3.8,60-10.8,88.2c116.7,42.5,205.3,143.3,230.5,267.2C1764.5,686.8,1870,550.2,1870,389z"/>
	<g class="filtering nozero">
		<path class="fl0 mix" d="M1147,389c0,24.9,2.5,49.2,7.3,72.6c34.7-11.1,71.8-17.1,110.2-17.1c43.4,0,85.1,7.7,123.7,21.7
			c7.1-28.2,10.8-57.8,10.8-88.2c0-106.6-46.2-202.5-119.6-268.6C1198.6,175.7,1147,276.3,1147,389z"/>
		<path class="fl1 mix" d="M1147,389c0,24.9,2.5,49.2,7.3,72.6c34.7-11.1,71.8-17.1,110.2-17.1c43.4,0,85.1,7.7,123.7,21.7
			c7.1-28.2,10.8-57.8,10.8-88.2c0-106.6-46.2-202.5-119.6-268.6C1198.6,175.7,1147,276.3,1147,389z"/>
	</g>
	<path class="fl2 filtering contantfertility" d="M1266.6,657.6c-62.4,51.2-142.1,81.9-229.1,81.9c-43.4,0-85.1-7.7-123.7-21.7C906.8,746,903,775.6,903,806
		c0,199.7,161.8,361.5,361.5,361.5S1626,1005.7,1626,806c0-24.9-2.5-49.2-7.3-72.6c-34.7,11.1-71.8,17.1-110.2,17.1
		C1415.5,750.5,1330.7,715.4,1266.6,657.6z"/>
	<g class="filtering constantno">
		<path class="fl2 mix" d="M1266.6,657.6c-56.3-50.7-96.6-118.9-112.3-196c-118.2,37.8-210,134.8-240.5,256.2
			c38.6,14,80.2,21.7,123.7,21.7C1124.5,739.5,1204.2,708.8,1266.6,657.6z"/>
		<path class="fl0 mix" d="M1266.6,657.6c-56.3-50.7-96.6-118.9-112.3-196c-118.2,37.8-210,134.8-240.5,256.2
			c38.6,14,80.2,21.7,123.7,21.7C1124.5,739.5,1204.2,708.8,1266.6,657.6z"/>
	</g>
	<g class="filtering zerocontant">
		<path class="fl2 mix" d="M1388.2,466.2c-19.1,76.3-62.5,143-121.6,191.4c64.1,57.7,148.9,92.9,241.9,92.9c38.4,0,75.5-6,110.2-17.1
			C1593.4,609.5,1504.8,508.7,1388.2,466.2z"/>
		<path class="fl1 mix" d="M1388.2,466.2c-19.1,76.3-62.5,143-121.6,191.4c64.1,57.7,148.9,92.9,241.9,92.9c38.4,0,75.5-6,110.2-17.1
			C1593.4,609.5,1504.8,508.7,1388.2,466.2z"/>
	</g>
	<g class="filtering combo">
		<path class="fl0 mix" d="M1154.3,461.6c15.7,77.1,56,145.3,112.3,196c59-48.4,102.4-115.1,121.6-191.4c-38.6-14-80.2-21.7-123.7-21.7
			C1226.1,444.5,1189,450.5,1154.3,461.6z"/>
		<path class="fl1 mix" d="M1154.3,461.6c15.7,77.1,56,145.3,112.3,196c59-48.4,102.4-115.1,121.6-191.4c-38.6-14-80.2-21.7-123.7-21.7
			C1226.1,444.5,1189,450.5,1154.3,461.6z"/>
		<path class="fl2 mix" d="M1154.3,461.6c15.7,77.1,56,145.3,112.3,196c59-48.4,102.4-115.1,121.6-191.4c-38.6-14-80.2-21.7-123.7-21.7
			C1226.1,444.5,1189,450.5,1154.3,461.6z"/>
	</g>
	<text transform="matrix(1 0 0 1 755.667 363.1582)" class="fl3 fl4">no change / 10Mio. Menschen</text>
	<text transform="matrix(1 0 0 1 1051.667 899.1582)" class="fl3 fl4">constant fertility / 10Mio. Menschen</text>
	<text transform="matrix(1 0 0 1 1442.667 400.1582)" class="fl3 fl4">zero migration / 10Mio. Menschen</text>
</g>
<g id="Layer_9">
	<text transform="matrix(1 0 0 1 228.7681 1230)"><tspan x="0" y="0" class="fl5 fl6">Wähle nun eines der Felder in der Grundfarbe oder eine Mischfarbe an, um dir die einzelnen Szenarien </tspan><tspan x="585.1" y="60" class="fl5 fl6">oder eine Kombinationen davon anzuschauen</tspan></text>
</g>
</svg>
