<?xml version="1.0" encoding="utf-8"?>
<!-- Generator: Adobe Illustrator 21.1.0, SVG Export Plug-In . SVG Version: 6.00 Build 0)  -->
<svg version="1.1" id="filter" xmlns="http://www.w3.org/2000/svg" xmlns:xlink="http://www.w3.org/1999/xlink" x="0px" y="0px"
	 viewBox="0 0 1712 1344" style="enable-background:new 0 0 1712 1344;" xml:space="preserve">
<style type="text/css">
</style>
<path class="fl0 nochange filtering" d="M727.3,587.6c-4.8-23.5-7.3-47.7-7.3-72.6c0-112.7,51.6-213.3,132.4-279.6c-64.1-57.7-148.9-92.9-241.9-92.9
	C410.8,142.5,249,304.3,249,504c0,156.2,99.1,289.3,237.8,339.8C517.3,722.4,609,625.4,727.3,587.6z"/>
<path class="fl1 filtering zeromigration" d="M1443,515c0-199.7-161.8-361.5-361.5-361.5c-87,0-166.7,30.7-229.1,81.9C925.8,301.5,972,397.4,972,504
	c0,30.4-3.8,60-10.8,88.2c116.7,42.5,205.3,143.3,230.5,267.2C1337.5,812.8,1443,676.2,1443,515z"/>
<g class="filtering nozero">
	<path class="fl0 mix" d="M720,515c0,24.9,2.5,49.2,7.3,72.6c34.7-11.1,71.8-17.1,110.2-17.1c43.4,0,85.1,7.7,123.7,21.7
		c7-28.2,10.8-57.8,10.8-88.2c0-106.6-46.2-202.5-119.6-268.6C771.6,301.7,720,402.3,720,515z"/>
	<path class="fl1 mix" d="M720,515c0,24.9,2.5,49.2,7.3,72.6c34.7-11.1,71.8-17.1,110.2-17.1c43.4,0,85.1,7.7,123.7,21.7
		c7-28.2,10.8-57.8,10.8-88.2c0-106.6-46.2-202.5-119.6-268.6C771.6,301.7,720,402.3,720,515z"/>
</g>
<path class="fl2 filtering contantfertility" d="M839.6,783.6c-62.4,51.2-142.1,81.9-229.1,81.9c-43.4,0-85.1-7.7-123.7-21.7c-7,28.2-10.8,57.8-10.8,88.2
	c0,199.7,161.8,361.5,361.5,361.5S1199,1131.7,1199,932c0-24.9-2.5-49.2-7.3-72.6c-34.7,11.1-71.8,17.1-110.2,17.1
	C988.5,876.5,903.7,841.4,839.6,783.6z"/>
<g class="filtering constantno">
	<path class="fl0 mix" d="M839.6,783.6c-56.3-50.7-96.6-118.9-112.3-196c-118.2,37.8-210,134.8-240.5,256.2
		c38.6,14,80.2,21.7,123.7,21.7C697.5,865.5,777.2,834.8,839.6,783.6z"/>
	<path class="fl2 mix" d="M839.6,783.6c-56.3-50.7-96.6-118.9-112.3-196c-118.2,37.8-210,134.8-240.5,256.2
		c38.6,14,80.2,21.7,123.7,21.7C697.5,865.5,777.2,834.8,839.6,783.6z"/>
</g>
<g class="filtering zerocontant">
	<path class="fl2 mix" d="M961.2,592.2c-19.1,76.3-62.5,143-121.6,191.4c64.1,57.7,148.9,92.9,241.9,92.9c38.4,0,75.5-6,110.2-17.1
		C1166.4,735.5,1077.8,634.7,961.2,592.2z"/>
	<path class="fl1 mix" d="M961.2,592.2c-19.1,76.3-62.5,143-121.6,191.4c64.1,57.7,148.9,92.9,241.9,92.9c38.4,0,75.5-6,110.2-17.1
		C1166.4,735.5,1077.8,634.7,961.2,592.2z"/>
</g>
<g  class="filtering combo">
	<path class="fl0 mix" d="M727.3,587.6c15.7,77.1,56,145.3,112.3,196c59-48.4,102.4-115.1,121.6-191.4c-38.6-14-80.2-21.7-123.7-21.7
		C799.1,570.5,762,576.5,727.3,587.6z"/>
	<path class="fl2 mix" d="M727.3,587.6c15.7,77.1,56,145.3,112.3,196c59-48.4,102.4-115.1,121.6-191.4c-38.6-14-80.2-21.7-123.7-21.7
		C799.1,570.5,762,576.5,727.3,587.6z"/>
	<path class="fl1 mix" d="M727.3,587.6c15.7,77.1,56,145.3,112.3,196c59-48.4,102.4-115.1,121.6-191.4c-38.6-14-80.2-21.7-123.7-21.7
		C799.1,570.5,762,576.5,727.3,587.6z"/>
</g>
<g id="labels">
	<g>
		<text transform="matrix(1 0 0 1 61.0199 171.5111)" class="fl4 fl5 fl6">no change</text>
		<polyline class="fl7" points="468.9,328.7 286.5,187.5 61,187.5 		"/>
	</g>
	<g>
		<text transform="matrix(1 0 0 1 1364.1964 142.5002)" class="fl4 fl5 fl6">zero migration</text>
		<polyline class="fl8" points="1220.4,359.6 1364.2,159.6 1671.8,159.6 		"/>
	</g>
	<g>
		<text transform="matrix(1 0 0 1 1212.9922 1230.1699)" class="fl4 fl5 fl6">constant fertility</text>
		<polyline class="fl8" points="982.1,1038.6 1208,1255.2 1565.9,1255.2 		"/>
	</g>
</g>
</svg>
