<?xml version="1.0" encoding="utf-8"?>
<!-- Generator: Adobe Illustrator 21.1.0, SVG Export Plug-In . SVG Version: 6.00 Build 0)  -->
<svg version="1.1" xmlns="http://www.w3.org/2000/svg" xmlns:xlink="http://www.w3.org/1999/xlink" x="0px" y="0px"
	 viewBox="0 0 2546 1334" style="enable-background:new 0 0 2546 1334;" xml:space="preserve" id="percentage">
<g id="Australia__x28_6_x25__x29_" class="ab0">
	<g>
		<rect x="1982.5" y="991.5" width="99" height="99"/>
		<path class="ab1" d="M2081,992v98h-9h-10h-10h-10h-10h-10h-10h-10h-10h-9v-98h9h10h10h10h10h10h10h10h10H2081 M2082,991h-10h-10
			h-10h-10h-10h-10h-10h-10h-10h-10v100h10h10h10h10h10h10h10h10h10h10V991L2082,991z"/>
	</g>
	<g>
		<rect x="2081.5" y="991.5" width="99" height="99"/>
		<path class="ab1" d="M2180,992v98h-9h-10h-10h-10h-10h-10h-10h-10h-10h-9v-98h9h10h10h10h10h10h10h10h10H2180 M2181,991h-10h-10
			h-10h-10h-10h-10h-10h-10h-10h-10v100h10h10h10h10h10h10h10h10h10h10V991L2181,991z"/>
	</g>
	<g>
		<rect x="1982.5" y="892.5" width="99" height="99"/>
		<path class="ab1" d="M2081,893v98h-9h-10h-10h-10h-10h-10h-10h-10h-10h-9v-98h9h10h10h10h10h10h10h10h10H2081 M2082,892h-10h-10
			h-10h-10h-10h-10h-10h-10h-10h-10v100h10h10h10h10h10h10h10h10h10h10V892L2082,892z"/>
	</g>
	<g>
		<rect x="2081.5" y="892.5" width="99" height="99"/>
		<path class="ab1" d="M2180,893v98h-9h-10h-10h-10h-10h-10h-10h-10h-10h-9v-98h9h10h10h10h10h10h10h10h10H2180 M2181,892h-10h-10
			h-10h-10h-10h-10h-10h-10h-10h-10v100h10h10h10h10h10h10h10h10h10h10V892L2181,892z"/>
	</g>
	<g>
		<rect x="2180.5" y="892.5" width="99" height="99"/>
		<path class="ab1" d="M2279,893v98h-9h-10h-10h-10h-10h-10h-10h-10h-10h-9v-98h9h10h10h10h10h10h10h10h10H2279 M2280,892h-10h-10
			h-10h-10h-10h-10h-10h-10h-10h-10v100h10h10h10h10h10h10h10h10h10h10V892L2280,892z"/>
	</g>
	<g>
		<rect x="2180.5" y="991.5" width="99" height="99"/>
		<path class="ab1" d="M2279,992v98h-9h-10h-10h-10h-10h-10h-10h-10h-10h-9v-98h9h10h10h10h10h10h10h10h10H2279 M2280,991h-10h-10
			h-10h-10h-10h-10h-10h-10h-10h-10v100h10h10h10h10h10h10h10h10h10h10V991L2280,991z"/>
	</g>
</g>
<g id="Europe__x28_7_x25__x29_" class="ab0">
	<g>
		<rect x="1169.5" y="88.5" width="99" height="99"/>
		<path class="ab1" d="M1268,89v98h-9h-10h-10h-10h-10h-10h-10h-10h-10h-9V89h9h10h10h10h10h10h10h10h10H1268 M1269,88h-10h-10h-10
			h-10h-10h-10h-10h-10h-10h-10v100h10h10h10h10h10h10h10h10h10h10V88L1269,88z"/>
	</g>
	<g>
		<rect x="1267.5" y="89.5" width="99" height="99"/>
		<path class="ab1" d="M1366,90v98h-9h-10h-10h-10h-10h-10h-10h-10h-10h-9V90h9h10h10h10h10h10h10h10h10H1366 M1367,89h-10h-10h-10
			h-10h-10h-10h-10h-10h-10h-10v100h10h10h10h10h10h10h10h10h10h10V89L1367,89z"/>
	</g>
	<g>
		<rect x="1366.5" y="88.5" width="99" height="99"/>
		<path class="ab1" d="M1465,89v98h-9h-10h-10h-10h-10h-10h-10h-10h-10h-9V89h9h10h10h10h10h10h10h10h10H1465 M1466,88h-10h-10h-10
			h-10h-10h-10h-10h-10h-10h-10v100h10h10h10h10h10h10h10h10h10h10V88L1466,88z"/>
	</g>
	<g>
		<rect x="1267.5" y="189.5" width="99" height="99"/>
		<path class="ab1" d="M1366,190v98h-9h-10h-10h-10h-10h-10h-10h-10h-10h-9v-98h9h10h10h10h10h10h10h10h10H1366 M1367,189h-10h-10
			h-10h-10h-10h-10h-10h-10h-10h-10v100h10h10h10h10h10h10h10h10h10h10V189L1367,189z"/>
	</g>
	<g>
		<rect x="1366.5" y="188.5" width="99" height="99"/>
		<path class="ab1" d="M1465,189v98h-9h-10h-10h-10h-10h-10h-10h-10h-10h-9v-98h9h10h10h10h10h10h10h10h10H1465 M1466,188h-10h-10
			h-10h-10h-10h-10h-10h-10h-10h-10v100h10h10h10h10h10h10h10h10h10h10V188L1466,188z"/>
	</g>
	<g>
		<rect x="1464.5" y="89.5" width="99" height="99"/>
		<path class="ab1" d="M1563,90v98h-9h-10h-10h-10h-10h-10h-10h-10h-10h-9V90h9h10h10h10h10h10h10h10h10H1563 M1564,89h-10h-10h-10
			h-10h-10h-10h-10h-10h-10h-10v100h10h10h10h10h10h10h10h10h10h10V89L1564,89z"/>
	</g>
	<g>
		<rect x="1464.5" y="188.5" width="99" height="99"/>
		<path class="ab1" d="M1563,189v98h-9h-10h-10h-10h-10h-10h-10h-10h-10h-9v-98h9h10h10h10h10h10h10h10h10H1563 M1564,188h-10h-10
			h-10h-10h-10h-10h-10h-10h-10h-10v100h10h10h10h10h10h10h10h10h10h10V188L1564,188z"/>
	</g>
</g>
<g id="Antarctica__x28_9_x25__x29_" class="ab0">
	<g>
		<rect x="841.5" y="1177.5" width="99" height="99"/>
		<path class="ab1" d="M940,1178v98h-9h-10h-10h-10h-10h-10h-10h-10h-10h-9v-98h9h10h10h10h10h10h10h10h10H940 M941,1177h-10h-10
			h-10h-10h-10h-10h-10h-10h-10h-10v100h10h10h10h10h10h10h10h10h10h10V1177L941,1177z"/>
	</g>
	<g>
		<rect x="940.5" y="1177.5" width="99" height="99"/>
		<path class="ab1" d="M1039,1178v98h-9h-10h-10h-10h-10h-10h-10h-10h-10h-9v-98h9h10h10h10h10h10h10h10h10H1039 M1040,1177h-10h-10
			h-10h-10h-10h-10h-10h-10h-10h-10v100h10h10h10h10h10h10h10h10h10h10V1177L1040,1177z"/>
	</g>
	<g>
		<rect x="1039.5" y="1177.5" width="99" height="99"/>
		<path class="ab1" d="M1138,1178v98h-9h-10h-10h-10h-10h-10h-10h-10h-10h-9v-98h9h10h10h10h10h10h10h10h10H1138 M1139,1177h-10h-10
			h-10h-10h-10h-10h-10h-10h-10h-10v100h10h10h10h10h10h10h10h10h10h10V1177L1139,1177z"/>
	</g>
	<g>
		<rect x="1138.5" y="1177.5" width="99" height="99"/>
		<path class="ab1" d="M1237,1178v98h-9h-10h-10h-10h-10h-10h-10h-10h-10h-9v-98h9h10h10h10h10h10h10h10h10H1237 M1238,1177h-10h-10
			h-10h-10h-10h-10h-10h-10h-10h-10v100h10h10h10h10h10h10h10h10h10h10V1177L1238,1177z"/>
	</g>
	<g>
		<rect x="1237.5" y="1177.5" width="99" height="99"/>
		<path class="ab1" d="M1336,1178v98h-9h-10h-10h-10h-10h-10h-10h-10h-10h-9v-98h9h10h10h10h10h10h10h10h10H1336 M1337,1177h-10h-10
			h-10h-10h-10h-10h-10h-10h-10h-10v100h10h10h10h10h10h10h10h10h10h10V1177L1337,1177z"/>
	</g>
	<g>
		<rect x="1336.5" y="1177.5" width="99" height="99"/>
		<path class="ab1" d="M1435,1178v98h-9h-10h-10h-10h-10h-10h-10h-10h-10h-9v-98h9h10h10h10h10h10h10h10h10H1435 M1436,1177h-10h-10
			h-10h-10h-10h-10h-10h-10h-10h-10v100h10h10h10h10h10h10h10h10h10h10V1177L1436,1177z"/>
	</g>
	<g>
		<rect x="1435.5" y="1177.5" width="99" height="99"/>
		<path class="ab1" d="M1534,1178v98h-9h-10h-10h-10h-10h-10h-10h-10h-10h-9v-98h9h10h10h10h10h10h10h10h10H1534 M1535,1177h-10h-10
			h-10h-10h-10h-10h-10h-10h-10h-10v100h10h10h10h10h10h10h10h10h10h10V1177L1535,1177z"/>
	</g>
	<g>
		<rect x="1534.5" y="1177.5" width="99" height="99"/>
		<path class="ab1" d="M1633,1178v98h-9h-10h-10h-10h-10h-10h-10h-10h-10h-9v-98h9h10h10h10h10h10h10h10h10H1633 M1634,1177h-10h-10
			h-10h-10h-10h-10h-10h-10h-10h-10v100h10h10h10h10h10h10h10h10h10h10V1177L1634,1177z"/>
	</g>
	<g>
		<rect x="1633.5" y="1177.5" width="89" height="99"/>
		<path class="ab1" d="M1722,1178v98h-9h-10h-10h-10h-10h-10h-10h-10h-9v-98h9h10h10h10h10h10h10h10H1722 M1723,1177h-10h-10h-10
			h-10h-10h-10h-10h-10h-10v100h10h10h10h10h10h10h10h10h10V1177L1723,1177z"/>
	</g>
</g>
<g id="South_America__x28_12_x25__x29_" class="ab0">
	<g>
		<rect x="476.5" y="561.5" width="99" height="99"/>
		<path class="ab1" d="M575,562v98h-9h-10h-10h-10h-10h-10h-10h-10h-10h-9v-98h9h10h10h10h10h10h10h10h10H575 M576,561h-10h-10h-10
			h-10h-10h-10h-10h-10h-10h-10v100h10h10h10h10h10h10h10h10h10h10V561L576,561z"/>
	</g>
	<g>
		<rect x="576.5" y="561.5" width="99" height="99"/>
		<path class="ab1" d="M675,562v98h-9h-10h-10h-10h-10h-10h-10h-10h-10h-9v-98h9h10h10h10h10h10h10h10h10H675 M676,561h-10h-10h-10
			h-10h-10h-10h-10h-10h-10h-10v100h10h10h10h10h10h10h10h10h10h10V561L676,561z"/>
	</g>
	<g>
		<rect x="676.5" y="561.5" width="99" height="99"/>
		<path class="ab1" d="M775,562v98h-9h-10h-10h-10h-10h-10h-10h-10h-10h-9v-98h9h10h10h10h10h10h10h10h10H775 M776,561h-10h-10h-10
			h-10h-10h-10h-10h-10h-10h-10v100h10h10h10h10h10h10h10h10h10h10V561L776,561z"/>
	</g>
	<g>
		<rect x="476.5" y="660.5" width="99" height="99"/>
		<path class="ab1" d="M575,661v98h-9h-10h-10h-10h-10h-10h-10h-10h-10h-9v-98h9h10h10h10h10h10h10h10h10H575 M576,660h-10h-10h-10
			h-10h-10h-10h-10h-10h-10h-10v100h10h10h10h10h10h10h10h10h10h10V660L576,660z"/>
	</g>
	<g>
		<rect x="377.5" y="660.5" width="99" height="99"/>
		<path class="ab1" d="M476,661v98h-9h-10h-10h-10h-10h-10h-10h-10h-10h-9v-98h9h10h10h10h10h10h10h10h10H476 M477,660h-10h-10h-10
			h-10h-10h-10h-10h-10h-10h-10v100h10h10h10h10h10h10h10h10h10h10V660L477,660z"/>
	</g>
	<g>
		<rect x="576.5" y="660.5" width="99" height="99"/>
		<path class="ab1" d="M675,661v98h-9h-10h-10h-10h-10h-10h-10h-10h-10h-9v-98h9h10h10h10h10h10h10h10h10H675 M676,660h-10h-10h-10
			h-10h-10h-10h-10h-10h-10h-10v100h10h10h10h10h10h10h10h10h10h10V660L676,660z"/>
	</g>
	<g>
		<rect x="478.5" y="758.5" width="99" height="99"/>
		<path class="ab1" d="M577,759v98h-9h-10h-10h-10h-10h-10h-10h-10h-10h-9v-98h9h10h10h10h10h10h10h10h10H577 M578,758h-10h-10h-10
			h-10h-10h-10h-10h-10h-10h-10v100h10h10h10h10h10h10h10h10h10h10V758L578,758z"/>
	</g>
	<g>
		<rect x="578.5" y="758.5" width="99" height="99"/>
		<path class="ab1" d="M677,759v98h-9h-10h-10h-10h-10h-10h-10h-10h-10h-9v-98h9h10h10h10h10h10h10h10h10H677 M678,758h-10h-10h-10
			h-10h-10h-10h-10h-10h-10h-10v100h10h10h10h10h10h10h10h10h10h10V758L678,758z"/>
	</g>
	<g>
		<rect x="577.5" y="857.5" width="99" height="99"/>
		<path class="ab1" d="M676,858v98h-9h-10h-10h-10h-10h-10h-10h-10h-10h-9v-98h9h10h10h10h10h10h10h10h10H676 M677,857h-10h-10h-10
			h-10h-10h-10h-10h-10h-10h-10v100h10h10h10h10h10h10h10h10h10h10V857L677,857z"/>
	</g>
	<g>
		<rect x="577.5" y="956.5" width="99" height="99"/>
		<path class="ab1" d="M676,957v98h-9h-10h-10h-10h-10h-10h-10h-10h-10h-9v-98h9h10h10h10h10h10h10h10h10H676 M677,956h-10h-10h-10
			h-10h-10h-10h-10h-10h-10h-10v100h10h10h10h10h10h10h10h10h10h10V956L677,956z"/>
	</g>
	<g>
		<rect x="579.5" y="1054.5" width="99" height="99"/>
		<path class="ab1" d="M678,1055v98h-9h-10h-10h-10h-10h-10h-10h-10h-10h-9v-98h9h10h10h10h10h10h10h10h10H678 M679,1054h-10h-10
			h-10h-10h-10h-10h-10h-10h-10h-10v100h10h10h10h10h10h10h10h10h10h10V1054L679,1054z"/>
	</g>
	<g>
		<rect x="676.5" y="660.5" width="99" height="99"/>
		<path class="ab1" d="M775,661v98h-9h-10h-10h-10h-10h-10h-10h-10h-10h-9v-98h9h10h10h10h10h10h10h10h10H775 M776,660h-10h-10h-10
			h-10h-10h-10h-10h-10h-10h-10v100h10h10h10h10h10h10h10h10h10h10V660L776,660z"/>
	</g>
</g>
<g id="North_America__x28_17_x25__x29_" class="ab0">
	<g>
		<rect x="205.5" y="348.5" width="99" height="99"/>
		<path class="ab1" d="M304,349v98h-9h-10h-10h-10h-10h-10h-10h-10h-10h-9v-98h9h10h10h10h10h10h10h10h10H304 M305,348h-10h-10h-10
			h-10h-10h-10h-10h-10h-10h-10v100h10h10h10h10h10h10h10h10h10h10V348L305,348z"/>
	</g>
	<g>
		<rect x="304.5" y="348.5" width="99" height="99"/>
		<path class="ab1" d="M403,349v98h-9h-10h-10h-10h-10h-10h-10h-10h-10h-9v-98h9h10h10h10h10h10h10h10h10H403 M404,348h-10h-10h-10
			h-10h-10h-10h-10h-10h-10h-10v100h10h10h10h10h10h10h10h10h10h10V348L404,348z"/>
	</g>
	<g>
		<rect x="304.5" y="447.5" width="99" height="99"/>
		<path class="ab1" d="M403,448v98h-9h-10h-10h-10h-10h-10h-10h-10h-10h-9v-98h9h10h10h10h10h10h10h10h10H403 M404,447h-10h-10h-10
			h-10h-10h-10h-10h-10h-10h-10v100h10h10h10h10h10h10h10h10h10h10V447L404,447z"/>
	</g>
	<g>
		<rect x="105.5" y="52.5" width="99" height="99"/>
		<path class="ab1" d="M204,53v98h-9h-10h-10h-10h-10h-10h-10h-10h-10h-9V53h9h10h10h10h10h10h10h10h10H204 M205,52h-10h-10h-10h-10
			h-10h-10h-10h-10h-10h-10v100h10h10h10h10h10h10h10h10h10h10V52L205,52z"/>
	</g>
	<g>
		<rect x="204.5" y="52.5" width="99" height="99"/>
		<path class="ab1" d="M303,53v98h-9h-10h-10h-10h-10h-10h-10h-10h-10h-9V53h9h10h10h10h10h10h10h10h10H303 M304,52h-10h-10h-10h-10
			h-10h-10h-10h-10h-10h-10v100h10h10h10h10h10h10h10h10h10h10V52L304,52z"/>
	</g>
	<g>
		<rect x="403.5" y="52.5" width="99" height="99"/>
		<path class="ab1" d="M502,53v98h-9h-10h-10h-10h-10h-10h-10h-10h-10h-9V53h9h10h10h10h10h10h10h10h10H502 M503,52h-10h-10h-10h-10
			h-10h-10h-10h-10h-10h-10v100h10h10h10h10h10h10h10h10h10h10V52L503,52z"/>
	</g>
	<g>
		<rect x="503.5" y="52.5" width="99" height="99"/>
		<path class="ab1" d="M602,53v98h-9h-10h-10h-10h-10h-10h-10h-10h-10h-9V53h9h10h10h10h10h10h10h10h10H602 M603,52h-10h-10h-10h-10
			h-10h-10h-10h-10h-10h-10v100h10h10h10h10h10h10h10h10h10h10V52L603,52z"/>
	</g>
	<g>
		<rect x="304.5" y="52.5" width="99" height="99"/>
		<path class="ab1" d="M403,53v98h-9h-10h-10h-10h-10h-10h-10h-10h-10h-9V53h9h10h10h10h10h10h10h10h10H403 M404,52h-10h-10h-10h-10
			h-10h-10h-10h-10h-10h-10v100h10h10h10h10h10h10h10h10h10h10V52L404,52z"/>
	</g>
	<g>
		<rect x="105.5" y="151.5" width="99" height="99"/>
		<path class="ab1" d="M204,152v98h-9h-10h-10h-10h-10h-10h-10h-10h-10h-9v-98h9h10h10h10h10h10h10h10h10H204 M205,151h-10h-10h-10
			h-10h-10h-10h-10h-10h-10h-10v100h10h10h10h10h10h10h10h10h10h10V151L205,151z"/>
	</g>
	<g>
		<rect x="204.5" y="151.5" width="99" height="99"/>
		<path class="ab1" d="M303,152v98h-9h-10h-10h-10h-10h-10h-10h-10h-10h-9v-98h9h10h10h10h10h10h10h10h10H303 M304,151h-10h-10h-10
			h-10h-10h-10h-10h-10h-10h-10v100h10h10h10h10h10h10h10h10h10h10V151L304,151z"/>
	</g>
	<g>
		<rect x="403.5" y="151.5" width="99" height="99"/>
		<path class="ab1" d="M502,152v98h-9h-10h-10h-10h-10h-10h-10h-10h-10h-9v-98h9h10h10h10h10h10h10h10h10H502 M503,151h-10h-10h-10
			h-10h-10h-10h-10h-10h-10h-10v100h10h10h10h10h10h10h10h10h10h10V151L503,151z"/>
	</g>
	<g>
		<rect x="503.5" y="151.5" width="99" height="99"/>
		<path class="ab1" d="M602,152v98h-9h-10h-10h-10h-10h-10h-10h-10h-10h-9v-98h9h10h10h10h10h10h10h10h10H602 M603,151h-10h-10h-10
			h-10h-10h-10h-10h-10h-10h-10v100h10h10h10h10h10h10h10h10h10h10V151L603,151z"/>
	</g>
	<g>
		<rect x="304.5" y="151.5" width="99" height="99"/>
		<path class="ab1" d="M403,152v98h-9h-10h-10h-10h-10h-10h-10h-10h-10h-9v-98h9h10h10h10h10h10h10h10h10H403 M404,151h-10h-10h-10
			h-10h-10h-10h-10h-10h-10h-10v100h10h10h10h10h10h10h10h10h10h10V151L404,151z"/>
	</g>
	<g>
		<rect x="105.5" y="250.5" width="99" height="99"/>
		<path class="ab1" d="M204,251v98h-9h-10h-10h-10h-10h-10h-10h-10h-10h-9v-98h9h10h10h10h10h10h10h10h10H204 M205,250h-10h-10h-10
			h-10h-10h-10h-10h-10h-10h-10v100h10h10h10h10h10h10h10h10h10h10V250L205,250z"/>
	</g>
	<g>
		<rect x="204.5" y="250.5" width="99" height="99"/>
		<path class="ab1" d="M303,251v98h-9h-10h-10h-10h-10h-10h-10h-10h-10h-9v-98h9h10h10h10h10h10h10h10h10H303 M304,250h-10h-10h-10
			h-10h-10h-10h-10h-10h-10h-10v100h10h10h10h10h10h10h10h10h10h10V250L304,250z"/>
	</g>
	<g>
		<rect x="403.5" y="250.5" width="99" height="99"/>
		<path class="ab1" d="M502,251v98h-9h-10h-10h-10h-10h-10h-10h-10h-10h-9v-98h9h10h10h10h10h10h10h10h10H502 M503,250h-10h-10h-10
			h-10h-10h-10h-10h-10h-10h-10v100h10h10h10h10h10h10h10h10h10h10V250L503,250z"/>
	</g>
	<g>
		<rect x="304.5" y="250.5" width="99" height="99"/>
		<path class="ab1" d="M403,251v98h-9h-10h-10h-10h-10h-10h-10h-10h-10h-9v-98h9h10h10h10h10h10h10h10h10H403 M404,250h-10h-10h-10
			h-10h-10h-10h-10h-10h-10h-10v100h10h10h10h10h10h10h10h10h10h10V250L404,250z"/>
	</g>
</g>
<g id="Africa" class="ab0">
	<g>
		<rect x="1163.5" y="870.5" width="99" height="99"/>
		<path class="ab1" d="M1262,871v98h-9h-10h-10h-10h-10h-10h-10h-10h-10h-9v-98h9h10h10h10h10h10h10h10h10H1262 M1263,870h-10h-10
			h-10h-10h-10h-10h-10h-10h-10h-10v100h10h10h10h10h10h10h10h10h10h10V870L1263,870z"/>
	</g>
	<g>
		<rect x="1262.5" y="870.5" width="99" height="99"/>
		<path class="ab1" d="M1361,871v98h-9h-10h-10h-10h-10h-10h-10h-10h-10h-9v-98h9h10h10h10h10h10h10h10h10H1361 M1362,870h-10h-10
			h-10h-10h-10h-10h-10h-10h-10h-10v100h10h10h10h10h10h10h10h10h10h10V870L1362,870z"/>
	</g>
	<g>
		<rect x="1162.5" y="770.5" width="99" height="99"/>
		<path class="ab1" d="M1261,771v98h-9h-10h-10h-10h-10h-10h-10h-10h-10h-9v-98h9h10h10h10h10h10h10h10h10H1261 M1262,770h-10h-10
			h-10h-10h-10h-10h-10h-10h-10h-10v100h10h10h10h10h10h10h10h10h10h10V770L1262,770z"/>
	</g>
	<g>
		<rect x="1261.5" y="770.5" width="99" height="99"/>
		<path class="ab1" d="M1360,771v98h-9h-10h-10h-10h-10h-10h-10h-10h-10h-9v-98h9h10h10h10h10h10h10h10h10H1360 M1361,770h-10h-10
			h-10h-10h-10h-10h-10h-10h-10h-10v100h10h10h10h10h10h10h10h10h10h10V770L1361,770z"/>
	</g>
	<g>
		<rect x="1360.5" y="769.5" width="99" height="99"/>
		<path class="ab1" d="M1459,770v98h-9h-10h-10h-10h-10h-10h-10h-10h-10h-9v-98h9h10h10h10h10h10h10h10h10H1459 M1460,769h-10h-10
			h-10h-10h-10h-10h-10h-10h-10h-10v100h10h10h10h10h10h10h10h10h10h10V769L1460,769z"/>
	</g>
	<g>
		<rect x="1162.5" y="671.5" width="99" height="99"/>
		<path class="ab1" d="M1261,672v98h-9h-10h-10h-10h-10h-10h-10h-10h-10h-9v-98h9h10h10h10h10h10h10h10h10H1261 M1262,671h-10h-10
			h-10h-10h-10h-10h-10h-10h-10h-10v100h10h10h10h10h10h10h10h10h10h10V671L1262,671z"/>
	</g>
	<g>
		<rect x="1261.5" y="671.5" width="99" height="99"/>
		<path class="ab1" d="M1360,672v98h-9h-10h-10h-10h-10h-10h-10h-10h-10h-9v-98h9h10h10h10h10h10h10h10h10H1360 M1361,671h-10h-10
			h-10h-10h-10h-10h-10h-10h-10h-10v100h10h10h10h10h10h10h10h10h10h10V671L1361,671z"/>
	</g>
	<g>
		<rect x="1360.5" y="670.5" width="99" height="99"/>
		<path class="ab1" d="M1459,671v98h-9h-10h-10h-10h-10h-10h-10h-10h-10h-9v-98h9h10h10h10h10h10h10h10h10H1459 M1460,670h-10h-10
			h-10h-10h-10h-10h-10h-10h-10h-10v100h10h10h10h10h10h10h10h10h10h10V670L1460,670z"/>
	</g>
	<g>
		<rect x="1163.5" y="572.5" width="99" height="99"/>
		<path class="ab1" d="M1262,573v98h-9h-10h-10h-10h-10h-10h-10h-10h-10h-9v-98h9h10h10h10h10h10h10h10h10H1262 M1263,572h-10h-10
			h-10h-10h-10h-10h-10h-10h-10h-10v100h10h10h10h10h10h10h10h10h10h10V572L1263,572z"/>
	</g>
	<g>
		<rect x="1262.5" y="572.5" width="99" height="99"/>
		<path class="ab1" d="M1361,573v98h-9h-10h-10h-10h-10h-10h-10h-10h-10h-9v-98h9h10h10h10h10h10h10h10h10H1361 M1362,572h-10h-10
			h-10h-10h-10h-10h-10h-10h-10h-10v100h10h10h10h10h10h10h10h10h10h10V572L1362,572z"/>
	</g>
	<g>
		<rect x="1361.5" y="571.5" width="99" height="99"/>
		<path class="ab1" d="M1460,572v98h-9h-10h-10h-10h-10h-10h-10h-10h-10h-9v-98h9h10h10h10h10h10h10h10h10H1460 M1461,571h-10h-10
			h-10h-10h-10h-10h-10h-10h-10h-10v100h10h10h10h10h10h10h10h10h10h10V571L1461,571z"/>
	</g>
	<g>
		<rect x="1164.5" y="472.5" width="99" height="99"/>
		<path class="ab1" d="M1263,473v98h-9h-10h-10h-10h-10h-10h-10h-10h-10h-9v-98h9h10h10h10h10h10h10h10h10H1263 M1264,472h-10h-10
			h-10h-10h-10h-10h-10h-10h-10h-10v100h10h10h10h10h10h10h10h10h10h10V472L1264,472z"/>
	</g>
	<g>
		<rect x="1263.5" y="472.5" width="99" height="99"/>
		<path class="ab1" d="M1362,473v98h-9h-10h-10h-10h-10h-10h-10h-10h-10h-9v-98h9h10h10h10h10h10h10h10h10H1362 M1363,472h-10h-10
			h-10h-10h-10h-10h-10h-10h-10h-10v100h10h10h10h10h10h10h10h10h10h10V472L1363,472z"/>
	</g>
	<g>
		<rect x="1362.5" y="471.5" width="99" height="99"/>
		<path class="ab1" d="M1461,472v98h-9h-10h-10h-10h-10h-10h-10h-10h-10h-9v-98h9h10h10h10h10h10h10h10h10H1461 M1462,471h-10h-10
			h-10h-10h-10h-10h-10h-10h-10h-10v100h10h10h10h10h10h10h10h10h10h10V471L1462,471z"/>
	</g>
	<g>
		<rect x="1460.5" y="470.5" width="99" height="99"/>
		<path class="ab1" d="M1559,471v98h-9h-10h-10h-10h-10h-10h-10h-10h-10h-9v-98h9h10h10h10h10h10h10h10h10H1559 M1560,470h-10h-10
			h-10h-10h-10h-10h-10h-10h-10h-10v100h10h10h10h10h10h10h10h10h10h10V470L1560,470z"/>
	</g>
	<g>
		<rect x="1065.5" y="472.5" width="99" height="99"/>
		<path class="ab1" d="M1164,473v98h-9h-10h-10h-10h-10h-10h-10h-10h-10h-9v-98h9h10h10h10h10h10h10h10h10H1164 M1165,472h-10h-10
			h-10h-10h-10h-10h-10h-10h-10h-10v100h10h10h10h10h10h10h10h10h10h10V472L1165,472z"/>
	</g>
	<g>
		<rect x="1065.9" y="374.2" width="99" height="99"/>
		<path class="ab1" d="M1164.4,374.7v98h-9h-10h-10h-10h-10h-10h-10h-10h-10h-9v-98h9h10h10h10h10h10h10h10h10H1164.4 M1165.4,373.7
			h-10h-10h-10h-10h-10h-10h-10h-10h-10h-10v100h10h10h10h10h10h10h10h10h10h10V373.7L1165.4,373.7z"/>
	</g>
	<g>
		<rect x="1164.9" y="374.2" width="99" height="99"/>
		<path class="ab1" d="M1263.4,374.7v98h-9h-10h-10h-10h-10h-10h-10h-10h-10h-9v-98h9h10h10h10h10h10h10h10h10H1263.4 M1264.4,373.7
			h-10h-10h-10h-10h-10h-10h-10h-10h-10h-10v100h10h10h10h10h10h10h10h10h10h10V373.7L1264.4,373.7z"/>
	</g>
	<g>
		<rect x="1263.9" y="374.2" width="99" height="99"/>
		<path class="ab1" d="M1362.4,374.7v98h-9h-10h-10h-10h-10h-10h-10h-10h-10h-9v-98h9h10h10h10h10h10h10h10h10H1362.4 M1363.4,373.7
			h-10h-10h-10h-10h-10h-10h-10h-10h-10h-10v100h10h10h10h10h10h10h10h10h10h10V373.7L1363.4,373.7z"/>
	</g>
	<g>
		<rect x="1362.9" y="374.2" width="99" height="99"/>
		<path class="ab1" d="M1461.4,374.7v98h-9h-10h-10h-10h-10h-10h-10h-10h-10h-9v-98h9h10h10h10h10h10h10h10h10H1461.4 M1462.4,373.7
			h-10h-10h-10h-10h-10h-10h-10h-10h-10h-10v100h10h10h10h10h10h10h10h10h10h10V373.7L1462.4,373.7z"/>
	</g>
	<g>
		<rect x="1461.9" y="374.2" width="99" height="99"/>
		<path class="ab1" d="M1560.4,374.7v98h-9h-10h-10h-10h-10h-10h-10h-10h-10h-9v-98h9h10h10h10h10h10h10h10h10H1560.4 M1561.4,373.7
			h-10h-10h-10h-10h-10h-10h-10h-10h-10h-10v100h10h10h10h10h10h10h10h10h10h10V373.7L1561.4,373.7z"/>
	</g>
</g>
<g id="Asia__x28_30_x25__x29_" class="ab0">
	<g>
		<rect x="2130.8" y="90.2" width="99" height="99"/>
		<path class="ab1" d="M2229.3,90.7v98h-9h-10h-10h-10h-10h-10h-10h-10h-10h-9v-98h9h10h10h10h10h10h10h10h10H2229.3 M2230.3,89.7
			h-10h-10h-10h-10h-10h-10h-10h-10h-10h-10v100h10h10h10h10h10h10h10h10h10h10V89.7L2230.3,89.7z"/>
	</g>
	<g>
		<rect x="2229.8" y="90.2" width="99" height="99"/>
		<path class="ab1" d="M2328.3,90.7v98h-9h-10h-10h-10h-10h-10h-10h-10h-10h-9v-98h9h10h10h10h10h10h10h10h10H2328.3 M2329.3,89.7
			h-10h-10h-10h-10h-10h-10h-10h-10h-10h-10v100h10h10h10h10h10h10h10h10h10h10V89.7L2329.3,89.7z"/>
	</g>
	<g>
		<rect x="1932.8" y="90.2" width="99" height="99"/>
		<path class="ab1" d="M2031.3,90.7v98h-9h-10h-10h-10h-10h-10h-10h-10h-10h-9v-98h9h10h10h10h10h10h10h10h10H2031.3 M2032.3,89.7
			h-10h-10h-10h-10h-10h-10h-10h-10h-10h-10v100h10h10h10h10h10h10h10h10h10h10V89.7L2032.3,89.7z"/>
	</g>
	<g>
		<rect x="2031.8" y="90.2" width="99" height="99"/>
		<path class="ab1" d="M2130.3,90.7v98h-9h-10h-10h-10h-10h-10h-10h-10h-10h-9v-98h9h10h10h10h10h10h10h10h10H2130.3 M2131.3,89.7
			h-10h-10h-10h-10h-10h-10h-10h-10h-10h-10v100h10h10h10h10h10h10h10h10h10h10V89.7L2131.3,89.7z"/>
	</g>
	<g>
		<rect x="1833.8" y="90.2" width="99" height="99"/>
		<path class="ab1" d="M1932.3,90.7v98h-9h-10h-10h-10h-10h-10h-10h-10h-10h-9v-98h9h10h10h10h10h10h10h10h10H1932.3 M1933.3,89.7
			h-10h-10h-10h-10h-10h-10h-10h-10h-10h-10v100h10h10h10h10h10h10h10h10h10h10V89.7L1933.3,89.7z"/>
	</g>
	<g>
		<rect x="1635.8" y="90.2" width="99" height="99"/>
		<path class="ab1" d="M1734.3,90.7v98h-9h-10h-10h-10h-10h-10h-10h-10h-10h-9v-98h9h10h10h10h10h10h10h10h10H1734.3 M1735.3,89.7
			h-10h-10h-10h-10h-10h-10h-10h-10h-10h-10v100h10h10h10h10h10h10h10h10h10h10V89.7L1735.3,89.7z"/>
	</g>
	<g>
		<rect x="1734.8" y="90.2" width="99" height="99"/>
		<path class="ab1" d="M1833.3,90.7v98h-9h-10h-10h-10h-10h-10h-10h-10h-10h-9v-98h9h10h10h10h10h10h10h10h10H1833.3 M1834.3,89.7
			h-10h-10h-10h-10h-10h-10h-10h-10h-10h-10v100h10h10h10h10h10h10h10h10h10h10V89.7L1834.3,89.7z"/>
	</g>
	<g>
		<rect x="2130.8" y="189.2" width="99" height="99"/>
		<path class="ab1" d="M2229.3,189.7v98h-9h-10h-10h-10h-10h-10h-10h-10h-10h-9v-98h9h10h10h10h10h10h10h10h10H2229.3 M2230.3,188.7
			h-10h-10h-10h-10h-10h-10h-10h-10h-10h-10v100h10h10h10h10h10h10h10h10h10h10V188.7L2230.3,188.7z"/>
	</g>
	<g>
		<rect x="2229.8" y="189.2" width="99" height="99"/>
		<path class="ab1" d="M2328.3,189.7v98h-9h-10h-10h-10h-10h-10h-10h-10h-10h-9v-98h9h10h10h10h10h10h10h10h10H2328.3 M2329.3,188.7
			h-10h-10h-10h-10h-10h-10h-10h-10h-10h-10v100h10h10h10h10h10h10h10h10h10h10V188.7L2329.3,188.7z"/>
	</g>
	<g>
		<rect x="1932.8" y="189.2" width="99" height="99"/>
		<path class="ab1" d="M2031.3,189.7v98h-9h-10h-10h-10h-10h-10h-10h-10h-10h-9v-98h9h10h10h10h10h10h10h10h10H2031.3 M2032.3,188.7
			h-10h-10h-10h-10h-10h-10h-10h-10h-10h-10v100h10h10h10h10h10h10h10h10h10h10V188.7L2032.3,188.7z"/>
	</g>
	<g>
		<rect x="2031.8" y="189.2" width="99" height="99"/>
		<path class="ab1" d="M2130.3,189.7v98h-9h-10h-10h-10h-10h-10h-10h-10h-10h-9v-98h9h10h10h10h10h10h10h10h10H2130.3 M2131.3,188.7
			h-10h-10h-10h-10h-10h-10h-10h-10h-10h-10v100h10h10h10h10h10h10h10h10h10h10V188.7L2131.3,188.7z"/>
	</g>
	<g>
		<rect x="1833.8" y="189.2" width="99" height="99"/>
		<path class="ab1" d="M1932.3,189.7v98h-9h-10h-10h-10h-10h-10h-10h-10h-10h-9v-98h9h10h10h10h10h10h10h10h10H1932.3 M1933.3,188.7
			h-10h-10h-10h-10h-10h-10h-10h-10h-10h-10v100h10h10h10h10h10h10h10h10h10h10V188.7L1933.3,188.7z"/>
	</g>
	<g>
		<rect x="1635.8" y="189.2" width="99" height="99"/>
		<path class="ab1" d="M1734.3,189.7v98h-9h-10h-10h-10h-10h-10h-10h-10h-10h-9v-98h9h10h10h10h10h10h10h10h10H1734.3 M1735.3,188.7
			h-10h-10h-10h-10h-10h-10h-10h-10h-10h-10v100h10h10h10h10h10h10h10h10h10h10V188.7L1735.3,188.7z"/>
	</g>
	<g>
		<rect x="1734.8" y="189.2" width="99" height="99"/>
		<path class="ab1" d="M1833.3,189.7v98h-9h-10h-10h-10h-10h-10h-10h-10h-10h-9v-98h9h10h10h10h10h10h10h10h10H1833.3 M1834.3,188.7
			h-10h-10h-10h-10h-10h-10h-10h-10h-10h-10v100h10h10h10h10h10h10h10h10h10h10V188.7L1834.3,188.7z"/>
	</g>
	<g>
		<rect x="2131.8" y="288.2" width="99" height="99"/>
		<path class="ab1" d="M2230.3,288.7v98h-9h-10h-10h-10h-10h-10h-10h-10h-10h-9v-98h9h10h10h10h10h10h10h10h10H2230.3 M2231.3,287.7
			h-10h-10h-10h-10h-10h-10h-10h-10h-10h-10v100h10h10h10h10h10h10h10h10h10h10V287.7L2231.3,287.7z"/>
	</g>
	<g>
		<rect x="2230.8" y="288.2" width="99" height="99"/>
		<path class="ab1" d="M2329.3,288.7v98h-9h-10h-10h-10h-10h-10h-10h-10h-10h-9v-98h9h10h10h10h10h10h10h10h10H2329.3 M2330.3,287.7
			h-10h-10h-10h-10h-10h-10h-10h-10h-10h-10v100h10h10h10h10h10h10h10h10h10h10V287.7L2330.3,287.7z"/>
	</g>
	<g>
		<rect x="1933.8" y="288.2" width="99" height="99"/>
		<path class="ab1" d="M2032.3,288.7v98h-9h-10h-10h-10h-10h-10h-10h-10h-10h-9v-98h9h10h10h10h10h10h10h10h10H2032.3 M2033.3,287.7
			h-10h-10h-10h-10h-10h-10h-10h-10h-10h-10v100h10h10h10h10h10h10h10h10h10h10V287.7L2033.3,287.7z"/>
	</g>
	<g>
		<rect x="2032.8" y="288.2" width="99" height="99"/>
		<path class="ab1" d="M2131.3,288.7v98h-9h-10h-10h-10h-10h-10h-10h-10h-10h-9v-98h9h10h10h10h10h10h10h10h10H2131.3 M2132.3,287.7
			h-10h-10h-10h-10h-10h-10h-10h-10h-10h-10v100h10h10h10h10h10h10h10h10h10h10V287.7L2132.3,287.7z"/>
	</g>
	<g>
		<rect x="1834.8" y="288.2" width="99" height="99"/>
		<path class="ab1" d="M1933.3,288.7v98h-9h-10h-10h-10h-10h-10h-10h-10h-10h-9v-98h9h10h10h10h10h10h10h10h10H1933.3 M1934.3,287.7
			h-10h-10h-10h-10h-10h-10h-10h-10h-10h-10v100h10h10h10h10h10h10h10h10h10h10V287.7L1934.3,287.7z"/>
	</g>
	<g>
		<rect x="1636.8" y="288.2" width="99" height="99"/>
		<path class="ab1" d="M1735.3,288.7v98h-9h-10h-10h-10h-10h-10h-10h-10h-10h-9v-98h9h10h10h10h10h10h10h10h10H1735.3 M1736.3,287.7
			h-10h-10h-10h-10h-10h-10h-10h-10h-10h-10v100h10h10h10h10h10h10h10h10h10h10V287.7L1736.3,287.7z"/>
	</g>
	<g>
		<rect x="1735.8" y="288.2" width="99" height="99"/>
		<path class="ab1" d="M1834.3,288.7v98h-9h-10h-10h-10h-10h-10h-10h-10h-10h-9v-98h9h10h10h10h10h10h10h10h10H1834.3 M1835.3,287.7
			h-10h-10h-10h-10h-10h-10h-10h-10h-10h-10v100h10h10h10h10h10h10h10h10h10h10V287.7L1835.3,287.7z"/>
	</g>
	<g>
		<rect x="2130.8" y="387.2" width="99" height="99"/>
		<path class="ab1" d="M2229.3,387.7v98h-9h-10h-10h-10h-10h-10h-10h-10h-10h-9v-98h9h10h10h10h10h10h10h10h10H2229.3 M2230.3,386.7
			h-10h-10h-10h-10h-10h-10h-10h-10h-10h-10v100h10h10h10h10h10h10h10h10h10h10V386.7L2230.3,386.7z"/>
	</g>
	<g>
		<rect x="2229.8" y="387.2" width="99" height="99"/>
		<path class="ab1" d="M2328.3,387.7v98h-9h-10h-10h-10h-10h-10h-10h-10h-10h-9v-98h9h10h10h10h10h10h10h10h10H2328.3 M2329.3,386.7
			h-10h-10h-10h-10h-10h-10h-10h-10h-10h-10v100h10h10h10h10h10h10h10h10h10h10V386.7L2329.3,386.7z"/>
	</g>
	<g>
		<rect x="1932.8" y="387.2" width="99" height="99"/>
		<path class="ab1" d="M2031.3,387.7v98h-9h-10h-10h-10h-10h-10h-10h-10h-10h-9v-98h9h10h10h10h10h10h10h10h10H2031.3 M2032.3,386.7
			h-10h-10h-10h-10h-10h-10h-10h-10h-10h-10v100h10h10h10h10h10h10h10h10h10h10V386.7L2032.3,386.7z"/>
	</g>
	<g>
		<rect x="2031.8" y="387.2" width="99" height="99"/>
		<path class="ab1" d="M2130.3,387.7v98h-9h-10h-10h-10h-10h-10h-10h-10h-10h-9v-98h9h10h10h10h10h10h10h10h10H2130.3 M2131.3,386.7
			h-10h-10h-10h-10h-10h-10h-10h-10h-10h-10v100h10h10h10h10h10h10h10h10h10h10V386.7L2131.3,386.7z"/>
	</g>
	<g>
		<rect x="1833.8" y="387.2" width="99" height="99"/>
		<path class="ab1" d="M1932.3,387.7v98h-9h-10h-10h-10h-10h-10h-10h-10h-10h-9v-98h9h10h10h10h10h10h10h10h10H1932.3 M1933.3,386.7
			h-10h-10h-10h-10h-10h-10h-10h-10h-10h-10v100h10h10h10h10h10h10h10h10h10h10V386.7L1933.3,386.7z"/>
	</g>
	<g>
		<rect x="1635.8" y="387.2" width="99" height="99"/>
		<path class="ab1" d="M1734.3,387.7v98h-9h-10h-10h-10h-10h-10h-10h-10h-10h-9v-98h9h10h10h10h10h10h10h10h10H1734.3 M1735.3,386.7
			h-10h-10h-10h-10h-10h-10h-10h-10h-10h-10v100h10h10h10h10h10h10h10h10h10h10V386.7L1735.3,386.7z"/>
	</g>
	<g>
		<rect x="1734.8" y="387.2" width="99" height="99"/>
		<path class="ab1" d="M1833.3,387.7v98h-9h-10h-10h-10h-10h-10h-10h-10h-10h-9v-98h9h10h10h10h10h10h10h10h10H1833.3 M1834.3,386.7
			h-10h-10h-10h-10h-10h-10h-10h-10h-10h-10v100h10h10h10h10h10h10h10h10h10h10V386.7L1834.3,386.7z"/>
	</g>
	<g>
		<rect x="1932.8" y="487.2" width="99" height="99"/>
		<path class="ab1" d="M2031.3,487.7v98h-9h-10h-10h-10h-10h-10h-10h-10h-10h-9v-98h9h10h10h10h10h10h10h10h10H2031.3 M2032.3,486.7
			h-10h-10h-10h-10h-10h-10h-10h-10h-10h-10v100h10h10h10h10h10h10h10h10h10h10V486.7L2032.3,486.7z"/>
	</g>
	<g>
		<rect x="1833.8" y="487.2" width="99" height="99"/>
		<path class="ab1" d="M1932.3,487.7v98h-9h-10h-10h-10h-10h-10h-10h-10h-10h-9v-98h9h10h10h10h10h10h10h10h10H1932.3 M1933.3,486.7
			h-10h-10h-10h-10h-10h-10h-10h-10h-10h-10v100h10h10h10h10h10h10h10h10h10h10V486.7L1933.3,486.7z"/>
	</g>
	<g>
		<rect x="1734.8" y="487.2" width="99" height="99"/>
		<path class="ab1" d="M1833.3,487.7v98h-9h-10h-10h-10h-10h-10h-10h-10h-10h-9v-98h9h10h10h10h10h10h10h10h10H1833.3 M1834.3,486.7
			h-10h-10h-10h-10h-10h-10h-10h-10h-10h-10v100h10h10h10h10h10h10h10h10h10h10V486.7L1834.3,486.7z"/>
	</g>
</g>
<g id="Numbers">
	<text id="Australia" transform="matrix(1 0 0 1 2065.3901 1025.6678)" class="ab2 ab3">6%</text>
	<text id="Europe" transform="matrix(1 0 0 1 1327.3901 214.6678)" class="ab2 ab3">7%</text>
	<text id="Antarctica" transform="matrix(1 0 0 1 1169.3901 1261.6678)" class="ab2 ab3">9%</text>
	<text id="South_America" transform="matrix(1 0 0 1 486.3901 739.6678)" class="ab2 ab3">12%</text>
	<text id="North_America" transform="matrix(1 0 0 1 205.3516 238.2999)" class="ab2 ab3">17%</text>
	<text id="Africa" transform="matrix(1 0 0 1 1213.3901 669.6678)" class="ab2 ab3">20%</text>
	<text id="Asia_1_" transform="matrix(1 0 0 1 1883.2377 320.9667)" class="ab2 ab3">30%</text>
</g>
<g id="legend">
	<g>
		<rect x="2113.5" y="1236.3" width="19" height="19"/>
		<path class="ab1" d="M2132,1236.8v18h-1h-2h-2h-2h-2h-2h-2h-2h-2h-1v-18h1h2h2h2h2h2h2h2h2H2132 M2133,1235.8h-2h-2h-2h-2h-2h-2
			h-2h-2h-2h-2v20h2h2h2h2h2h2h2h2h2h2V1235.8L2133,1235.8z"/>
	</g>
	<text transform="matrix(1 0 0 1 2138.9004 1253.7002)" class="ab4 ab5">1% der Erdoberfläche (Land)</text>
</g>
<g id="filter_system_overlay" class="ab6">
	<path class="ab7" d="M1413.3,562.1c-4.8-23.5-7.3-47.7-7.3-72.6c0-112.7,51.6-213.3,132.4-279.6c-64.1-57.7-148.9-92.9-241.9-92.9
		C1096.8,117,935,278.8,935,478.5c0,156.2,99.1,289.3,237.8,339.8C1203.3,696.9,1295,599.9,1413.3,562.1z"/>
	<path class="ab8" d="M2129,489.5c0-199.7-161.8-361.5-361.5-361.5c-87,0-166.7,30.7-229.1,81.9c73.4,66.2,119.6,162,119.6,268.6
		c0,30.4-3.8,60-10.8,88.2c116.7,42.5,205.3,143.3,230.5,267.2C2023.5,787.3,2129,650.7,2129,489.5z"/>
	<path class="ab9" d="M1406,489.5c0,24.9,2.5,49.2,7.3,72.6c34.7-11.1,71.8-17.1,110.2-17.1c43.4,0,85.1,7.7,123.7,21.7
		c7.1-28.2,10.8-57.8,10.8-88.2c0-106.6-46.2-202.5-119.6-268.6C1457.6,276.2,1406,376.8,1406,489.5z"/>
	<path class="ab10" d="M1525.6,758.1c-62.4,51.2-142.1,81.9-229.1,81.9c-43.4,0-85.1-7.7-123.7-21.7c-7.1,28.2-10.8,57.8-10.8,88.2
		c0,199.7,161.8,361.5,361.5,361.5S1885,1106.2,1885,906.5c0-24.9-2.5-49.2-7.3-72.6C1843,845,1805.9,851,1767.5,851
		C1674.5,851,1589.7,815.9,1525.6,758.1z"/>
	<path class="ab11" d="M1525.6,758.1c-56.3-50.7-96.6-118.9-112.3-196c-118.2,37.8-210,134.8-240.5,256.2
		c38.6,14,80.2,21.7,123.7,21.7C1383.5,840,1463.2,809.3,1525.6,758.1z"/>
	<path class="ab12" d="M1647.2,566.7c-19.1,76.3-62.5,143-121.6,191.4c64.1,57.7,148.9,92.9,241.9,92.9c38.4,0,75.5-6,110.2-17.1
		C1852.4,710,1763.8,609.2,1647.2,566.7z"/>
	<path class="ab13" d="M1413.3,562.1c15.7,77.1,56,145.3,112.3,196c59-48.4,102.4-115.1,121.6-191.4c-38.6-14-80.2-21.7-123.7-21.7
		C1485.1,545,1448,551,1413.3,562.1z"/>
	<text transform="matrix(1 0 0 1 1014.667 463.6582)" class="ab13 ab14 ab15">no change / 10Mio. Menschen</text>
	<text transform="matrix(1 0 0 1 1310.667 999.6582)" class="ab13 ab14 ab15">constant fertility / 10Mio. Menschen</text>
	<text transform="matrix(1 0 0 1 1701.667 500.6582)" class="ab13 ab14 ab15">zero migration / 10Mio. Menschen</text>
</g>
<g id="filter_system_copy" class="ab6">
	<g class="ab13">
		<path class="ab16" d="M2471,60.1c-0.3-1.7-0.5-3.4-0.5-5.2c0-8.1,3.7-15.4,9.5-20.2c-4.6-4.2-10.7-6.7-17.4-6.7
			c-14.4,0-26.1,11.7-26.1,26.1c0,11.3,7.1,20.9,17.2,24.5C2455.8,69.8,2462.4,62.8,2471,60.1z"/>
		<path class="ab17" d="M2522.6,54.9c0-14.4-11.7-26.1-26.1-26.1c-6.3,0-12,2.2-16.5,5.9c5.3,4.8,8.6,11.7,8.6,19.4
			c0,2.2-0.3,4.3-0.8,6.4c8.4,3.1,14.8,10.3,16.6,19.3C2515,76.3,2522.6,66.5,2522.6,54.9z"/>
		<path class="ab18" d="M2470.4,54.9c0,1.8,0.2,3.5,0.5,5.2c2.5-0.8,5.2-1.2,7.9-1.2c3.1,0,6.1,0.6,8.9,1.6c0.5-2,0.8-4.2,0.8-6.4
			c0-7.7-3.3-14.6-8.6-19.4C2474.1,39.5,2470.4,46.7,2470.4,54.9z"/>
		<path class="ab19" d="M2479.1,74.2c-4.5,3.7-10.3,5.9-16.5,5.9c-3.1,0-6.1-0.6-8.9-1.6c-0.5,2-0.8,4.2-0.8,6.4
			c0,14.4,11.7,26.1,26.1,26.1c14.4,0,26.1-11.7,26.1-26.1c0-1.8-0.2-3.5-0.5-5.2c-2.5,0.8-5.2,1.2-7.9,1.2
			C2489.8,80.9,2483.7,78.4,2479.1,74.2z"/>
		<path class="ab20" d="M2479.1,74.2c-4.1-3.7-7-8.6-8.1-14.1c-8.5,2.7-15.1,9.7-17.3,18.5c2.8,1,5.8,1.6,8.9,1.6
			C2468.8,80.1,2474.6,77.9,2479.1,74.2z"/>
		<path class="ab21" d="M2487.8,60.4c-1.4,5.5-4.5,10.3-8.8,13.8c4.6,4.2,10.7,6.7,17.4,6.7c2.8,0,5.4-0.4,7.9-1.2
			C2502.6,70.8,2496.2,63.5,2487.8,60.4z"/>
		<path d="M2471,60.1c1.1,5.6,4,10.5,8.1,14.1c4.3-3.5,7.4-8.3,8.8-13.8c-2.8-1-5.8-1.6-8.9-1.6C2476.1,58.9,2473.5,59.3,2471,60.1z
			"/>
	</g>
</g>
</svg>
